<svg width="1629" height="512" viewBox="0 0 1629 512" fill="none" xmlns="http://www.w3.org/2000/svg">
<path d="M170.367 131.555C160.832 132.736 148.561 135.569 140.823 138.559C132.226 141.785 121.674 146.979 121.674 148.002C121.674 148.631 123.55 149.182 126.598 149.497C137.54 150.756 157.862 159.333 176.229 170.271C180.684 172.946 185.061 175.149 185.842 175.149C186.702 175.149 191.001 172.946 195.378 170.271C205.851 163.897 223.124 155.477 231.096 152.802C234.691 151.621 240.319 150.283 243.68 149.733C247.744 149.182 249.854 148.474 249.854 147.844C249.854 145.562 231.643 137.772 218.982 134.624C202.334 130.454 187.015 129.51 170.367 131.555Z" fill="white"/>
<path d="M94.7878 168.225C73.9195 189.628 62.5865 212.841 58.7568 242.586C56.9591 256.435 57.4281 268.239 60.3981 283.347C63.2899 297.904 69.9334 314.272 77.7493 325.839C82.9077 333.551 83.7675 333.472 84.3927 325.21C86.8156 294.206 110.732 251.635 150.515 207.884C153.954 204.028 156.846 200.409 156.846 199.936C156.846 198.835 144.966 187.189 136.212 179.635C124.488 169.562 109.247 160.198 104.792 160.198C103.073 160.198 100.884 162.008 94.7878 168.225Z" fill="white"/>
<path d="M261.031 162.48C251.105 167.28 237.74 177.353 224.843 189.864C219.685 194.822 215.464 199.464 215.464 200.094C215.464 200.723 219.294 205.523 223.984 210.795C257.748 248.645 279.163 284.763 285.807 314.98C286.667 318.836 287.37 324.108 287.37 326.783C287.37 331.19 287.526 331.741 288.855 331.741C290.653 331.741 297.765 320.724 302.22 310.888C311.287 291.295 314.491 275.006 313.71 252.501C312.928 226.455 305.894 205.13 291.434 184.671C284.791 175.228 270.175 160.198 267.674 160.198C266.658 160.198 263.688 161.221 261.031 162.48Z" fill="white"/>
<path d="M177.167 231.963C158.643 248.173 134.18 273.668 120.268 291.373C105.496 310.101 89.6294 335.439 89.6294 340.161C89.6294 341.656 97.836 350.075 105.261 356.292C131.366 378.01 169.273 388.082 204.913 382.81C232.425 378.718 257.436 366.128 278.226 345.984C281.43 342.915 281.899 342.049 281.899 339.216C281.821 324.738 253.606 288.855 206.945 243.924C194.284 231.727 187.249 225.51 186.155 225.51C185.217 225.51 181.387 228.265 177.167 231.963Z" fill="white"/>
<path d="M1277.78 205.441L1391.85 360.092L1413.3 360.11V167.722H1391.86V325.742L1275.46 167.604L1256.38 167.568V359.965H1277.78V205.441Z" fill="white"/>
<path d="M1145.08 163.256C1090.98 163.256 1053.16 204.633 1053.16 263.866C1053.16 323.194 1090.98 364.563 1145.08 364.563C1199.13 364.563 1236.82 323.194 1236.82 263.866C1236.82 204.633 1199.13 163.256 1145.08 163.256V163.256ZM1145.08 344.178C1103.87 344.178 1074.98 311.152 1074.98 263.866C1074.98 216.622 1103.87 183.591 1145.08 183.591C1186.24 183.591 1214.95 216.622 1214.95 263.866C1214.95 311.152 1186.24 344.178 1145.08 344.178" fill="white"/>
<path d="M1572.08 186.416V167.595H1437.37V360.128H1573.41V341.294H1458.96V270.101H1564.88V251.266H1458.96V186.416H1572.08Z" fill="white"/>
<path d="M876.283 167.717L931.345 242.506L986.357 167.717H1011.66L944.15 259.405L1018.15 360.292H992.851L931.345 276.788L869.872 360.292H844.533L918.504 259.405L850.962 167.717H876.283Z" fill="white"/>
<path d="M654.221 266.691C650.204 263.268 645.841 260.62 641.606 258.661C655.582 251.076 664.75 236.74 664.75 220.108C664.75 207.785 660.207 167.726 602.147 167.726H523.946V250.741H497.891C494.499 255.143 486.836 265.717 483.907 270.064H523.946V360.274L602.147 360.282C644.508 360.282 670.836 338.765 670.836 304.07C670.836 288.908 665.104 276.018 654.221 266.692V266.691ZM545.566 187.812H602.147C617.474 187.812 643.112 191.626 643.112 218.417C643.112 238.671 628.166 250.741 602.147 250.741H545.566V187.812V187.812ZM602.147 340.197H545.566V270.092H602.147C623.604 270.092 649.27 276.017 649.27 303.653C649.269 335.427 619.759 340.197 602.147 340.197" fill="white"/>
<path d="M772.553 163.269C718.466 163.269 680.657 204.647 680.657 263.88C680.657 323.204 718.466 364.554 772.553 364.554C826.603 364.554 864.294 323.204 864.294 263.88C864.294 204.647 826.603 163.269 772.553 163.269H772.553ZM772.553 344.187C731.343 344.187 702.477 311.161 702.477 263.88C702.477 216.635 731.343 183.619 772.553 183.619C813.698 183.619 842.42 216.635 842.42 263.88C842.42 311.161 813.698 344.187 772.553 344.187" fill="white"/>
<path d="M346.313 167.722L413.822 259.4L339.801 360.274H365.158L426.609 276.793L488.096 360.274H513.426L439.396 259.4L506.951 167.722H481.639L426.573 242.529L371.552 167.722H346.313Z" fill="white"/>
</svg>
