<svg width="1629" height="512" viewBox="0 0 1629 512" fill="none" xmlns="http://www.w3.org/2000/svg">
<g clip-path="url(#clip0_2_93)">
<path d="M1463.83 394.573H1468.09V366.718H1478.17V363.107H1453.74V366.718H1463.83V394.573Z" fill="white"/>
<path d="M1486.35 369.01L1494.83 394.573H1499.04L1507.52 369.01V394.573H1511.04V363.107H1505.91L1497.08 389.981L1487.96 363.107H1482.09V394.573H1486.35V369.01ZM786.219 319.203V189.108C786.219 162.568 798.61 143.563 825.039 143.563H988.061C989.056 143.563 990.02 142.573 990.02 141.592V115.708C990.01 115.481 989.959 115.257 989.868 115.048H790.539C747.333 120.538 726.228 150.637 726.228 189.108V319.198C726.228 345.738 713.489 364.743 687.416 364.743H515.254C514.277 364.743 513.296 365.403 513.296 366.709V392.598C513.296 393.675 513.956 394.499 514.729 394.768H710.198C761.136 393.431 786.219 360.92 786.219 319.203V319.203ZM116.462 394.768H173.7C174.132 394.599 174.502 394.3 174.758 393.914C175.014 393.527 175.145 393.071 175.133 392.607V309.698C175.133 283.158 190.13 264.804 211.978 264.804H447.743C500.896 264.804 526.66 232.036 526.66 189.108C526.66 150.637 505.576 120.538 462.349 115.048H115.403C115.303 115.265 115.133 115.434 115.133 115.708V141.592C115.133 142.903 115.785 143.563 117.087 143.563H427.849C454.265 143.563 466.656 162.568 466.656 189.108C466.656 215.652 454.265 234.657 427.849 234.657H181.98C143.828 234.657 115.133 267.104 115.133 309.698V392.611C115.129 393.675 115.589 394.499 116.462 394.768Z" fill="white"/>
<path d="M989.064 364.752H1302.11C1303.07 364.752 1303.72 365.403 1303.72 366.063V392.607C1303.72 393.918 1304.72 394.573 1305.68 394.573H1362.11C1363.1 394.573 1364.05 393.918 1364.05 392.607V366.718C1364.05 365.733 1365.05 364.752 1366.01 364.752H1422.09C1423.4 364.752 1424.05 363.767 1424.05 362.79V336.572C1424.05 335.582 1423.4 334.606 1422.09 334.606H1366.01C1365.05 334.606 1364.05 333.616 1364.05 332.644V143.563C1364.05 128.134 1358.32 118.308 1348.68 115.048H1332.35C1327.26 116.355 1321.73 118.694 1315.8 122.257L978.631 330.344C965.584 338.533 961.012 347.704 964.277 354.587C966.886 360.49 974.367 364.752 989.064 364.752ZM1037.97 330.014L1299.16 168.466C1300.81 167.156 1304.07 167.485 1304.07 171.088V332.644C1304.07 333.629 1303.07 334.606 1302.11 334.606H1039.59C1037.32 334.606 1036.32 333.959 1036.02 333.295C1035.66 331.98 1036.31 330.999 1037.97 330.014V330.014Z" fill="white"/>
</g>
<defs>
<clipPath id="clip0_2_93">
<rect width="1399.25" height="283.031" fill="white" transform="translate(114.484 114.484)"/>
</clipPath>
</defs>
</svg>
