<svg width="512" height="512" viewBox="0 0 512 512" fill="none" xmlns="http://www.w3.org/2000/svg">
<path d="M123.478 470.921C123.478 467.008 123.569 466.821 125.716 466.35C134.325 464.46 134.588 446.403 126.007 446.403C121.906 446.403 120.486 448.552 118.644 457.545C116.62 467.431 113.102 472.322 107.341 473.256C101.321 474.233 96.1601 471.264 93.7168 465.419C92.2689 461.955 92.2961 452.754 93.7665 448.589C95.2079 444.505 97.3968 442.086 101.269 440.3C105.837 438.193 106.163 438.364 106.163 442.865C106.163 446.702 106.067 446.888 103.653 447.76C100.363 448.95 99.1624 451.377 99.0861 456.995C99.0297 461.137 99.2332 461.776 101.129 463.406C103.68 465.599 105.362 465.687 107.82 463.754C109.582 462.368 111.118 458.02 112.619 450.166C113.295 446.629 115.386 442.653 117.712 440.484C119.812 438.524 124.718 437.625 128.965 438.422C132.507 439.086 136.669 443.427 137.705 447.537C139.789 455.811 138.039 466.326 133.906 470.365C131.909 472.317 126.23 475 124.097 475C123.756 475 123.478 473.164 123.478 470.921H123.478ZM158.108 474.574C158.108 474.339 161.38 469.683 165.379 464.226C169.378 458.769 173.697 452.811 174.978 450.985C176.258 449.159 179.702 444.418 182.63 440.449C185.559 436.481 190.157 430.186 192.85 426.46C195.542 422.735 201.929 413.93 207.042 406.894C212.156 399.858 218.544 391.053 221.238 387.328C232.237 372.115 232.054 372.317 233.357 373.953C235.467 376.601 237.736 379.68 245.434 390.338C249.62 396.133 253.456 401.382 253.959 402.002C257.424 406.276 261.364 412.645 261.043 413.453C260.723 414.259 249.889 429.3 247.879 431.728C247.537 432.142 246.122 434.136 244.735 436.158C243.347 438.18 239.453 443.599 236.081 448.199C226.864 460.771 223.56 465.309 219.921 470.385L216.613 475H187.361C171.272 475 158.108 474.808 158.108 474.574V474.574ZM364.181 471.511C360.388 466.066 347.108 447.675 345.959 446.274C344.959 445.055 338.153 435.715 331.521 426.46C320.758 411.441 318.496 408.318 317.859 407.595C317.47 407.152 315.515 404.443 313.514 401.574C311.513 398.706 307.883 393.649 305.448 390.338C303.012 387.027 300.536 383.64 299.945 382.812C299.354 381.985 295.293 376.397 290.921 370.395C286.548 364.394 282.488 358.806 281.897 357.978C281.306 357.15 276.988 351.224 272.302 344.809C264.21 333.73 257.51 324.503 239.517 299.655C235.171 293.654 227.675 283.325 222.858 276.703C210.351 259.504 200.279 245.623 184.092 223.271C176.298 212.51 169.127 202.627 168.155 201.309C167.184 199.992 166.389 198.722 166.389 198.487C166.389 198.253 179.517 198.062 195.562 198.064L224.734 198.067L230.317 205.778C240.44 219.759 245.068 226.137 254.203 238.699C259.169 245.528 267.105 256.462 271.838 262.995C276.571 269.529 283.004 278.334 286.134 282.562C289.264 286.79 293.458 292.596 295.454 295.465C297.45 298.334 299.391 301.043 299.766 301.485C300.142 301.928 303.63 306.692 307.517 312.073C311.404 317.454 315.596 323.242 316.834 324.936C318.848 327.693 325.243 336.526 340.211 357.226C342.905 360.951 345.391 364.337 345.737 364.751C346.082 365.165 349.419 369.737 353.152 374.911C361.81 386.91 376.333 406.927 385.271 419.179C389.099 424.426 392.715 429.396 393.307 430.223C399.69 439.15 410.205 453.654 418.575 465.076C422.309 470.173 425.364 474.491 425.364 474.671C425.364 474.852 412.145 475 395.988 475H366.612L364.181 471.511ZM93.3646 403.884V387.704H97.1287H100.893V399.745V411.786L106.351 411.786L111.809 411.787V401.062V390.338L115.385 390.109L118.961 389.879V400.832V411.786H124.607H130.253V399.745V387.704H134.018H137.782V403.884V420.064H115.573H93.3646V403.884ZM93.5058 355.532C93.7809 343.649 93.9951 341.83 95.4467 339.056C97.2379 335.632 101.947 332.768 105.786 332.768C108.999 332.768 114.08 335.511 115.129 337.811L116.045 339.822L117.691 337.871C120.004 335.13 121.606 334.496 127.619 333.943C130.517 333.677 133.989 333.288 135.335 333.079L137.782 332.699V336.858C137.782 341.59 138.053 341.419 129.491 342.081C126.795 342.29 123.974 342.697 123.223 342.985C121.153 343.779 120.467 346.494 120.467 353.888V360.612H129.124H137.782V364.751V368.89H115.489H93.1967L93.5058 355.532ZM113.691 353.413C113.691 345.209 113.096 343.607 109.49 342.101C107.25 341.165 106.573 341.169 104.276 342.128C102.715 342.78 101.33 344.034 100.888 345.197C100.054 347.391 99.8569 359.326 100.642 360.11C100.918 360.386 103.967 360.612 107.417 360.612H113.691V353.413V353.413ZM93.3646 309.815V305.676H115.573H137.782V309.815V313.954H115.573H93.3646V309.815ZM344.18 280.058C340.415 274.901 333.785 265.81 329.447 259.856L321.56 249.03L323.964 245.822C325.285 244.057 326.935 241.817 327.63 240.844C328.324 239.871 331.342 235.688 334.336 231.549C337.329 227.41 340.962 222.347 342.407 220.298C343.853 218.248 345.334 216.216 345.698 215.782C346.063 215.348 349.122 211.184 352.496 206.527L358.631 198.061H387.944H417.256L415.931 200.13C415.202 201.269 412.852 204.57 410.708 207.468C408.565 210.365 405.739 214.26 404.43 216.122C402.357 219.071 396.791 226.807 393.351 231.52C392.735 232.364 389.099 237.341 385.271 242.581C381.444 247.82 375.263 256.378 371.537 261.598C367.81 266.817 363.99 272.013 363.048 273.143C362.106 274.273 359.826 277.399 357.982 280.089C356.137 282.779 353.818 285.983 352.827 287.208L351.025 289.435L344.18 280.058ZM93.7057 283.655C93.5003 283.12 93.4243 275.749 93.5366 267.275L93.741 251.868L97.3169 251.639L100.893 251.41V263.868V276.326H106.143H111.392L111.601 265.226L111.809 254.126H115.197H118.584L118.793 265.226L119.001 276.326H124.627H130.253V263.909V251.492H134.032H137.811L137.608 267.86L137.405 284.228L115.742 284.428C98.5827 284.586 94.0014 284.426 93.7057 283.655ZM123.478 230.104C123.478 226.226 123.584 226.002 125.635 225.551C129.738 224.651 132.496 220.224 132.508 214.521C132.514 211.693 130.506 207.28 128.798 206.366C124.025 203.813 120.648 207.205 118.71 216.498C117.232 223.587 114.882 228.521 111.937 230.719C110.277 231.958 108.725 232.302 104.79 232.302C100.507 232.302 99.444 232.024 97.6018 230.421C94.2779 227.528 92.6117 222.89 92.6117 216.531C92.6117 206.145 96.2742 200.402 104.092 198.528C106.157 198.034 106.163 198.043 106.163 202.112C106.163 205.946 106.03 206.238 103.96 206.959C100.593 208.133 99.0191 211.143 99.0889 216.276C99.158 221.36 101.238 224.4 104.646 224.4C107.698 224.4 109.526 222.081 110.947 216.41C113.557 205.991 114.583 203.223 116.746 200.76C121.858 194.94 132.228 196.291 136.163 203.288C138.309 207.105 139.284 214.026 138.433 219.403C137.271 226.744 134.456 230.744 128.921 232.92C123.82 234.925 123.478 234.748 123.478 230.104V230.104ZM309.186 164.944C287.119 162.219 269.551 148.323 262.08 127.683C259.047 119.306 258.15 113.274 258.165 101.378C258.186 85.0484 261.412 73.5529 269.191 62.0828C281.153 44.4449 302.01 35.7318 325.624 38.5076C351.025 41.4934 367.93 56.4088 374.683 81.7917C376.449 88.428 376.692 90.7843 376.739 101.734C376.786 112.474 376.554 115.066 375.019 120.924C371.622 133.885 366.538 142.608 357.508 150.965C351.325 156.688 341.74 161.777 333.519 163.704C327.252 165.172 315.77 165.757 309.186 164.944ZM329.732 147.138C338.304 144.762 344.572 140.056 350.245 131.736C354.386 125.663 356.507 119.401 357.675 109.801C359.839 92.0072 355.041 74.8526 345.21 65.2355C331.14 51.4721 306.579 50.7517 291.615 63.6637C287.528 67.1904 282.029 75.5946 280.139 81.2019C275.843 93.9494 276.119 112.555 280.777 124.243C284.06 132.484 291.415 140.847 298.519 144.421C307.687 149.031 319.266 150.039 329.732 147.138V147.138ZM32.1665 159.869C33.358 158.317 34.8263 156.306 35.4293 155.401C37.1826 152.769 50.5858 134.26 59.5778 122.053C61.8646 118.949 66.5261 112.57 69.9368 107.878L76.138 99.3473L69.5839 90.1932C65.9792 85.1585 61.7772 79.3459 60.2463 77.2764C58.7153 75.2068 52.9514 67.2486 47.4376 59.5914C41.9238 51.9342 36.5799 44.5686 35.5622 43.2234L33.712 40.7776L44.1528 40.7869L54.5936 40.7962L56.2249 43.2327C57.1222 44.5728 61.7879 51.0876 66.5933 57.71C71.3986 64.3325 77.7095 73.0527 80.6174 77.0882C83.5253 81.1238 86.1813 84.4256 86.5197 84.4256C86.858 84.4256 88.9308 81.9704 91.1258 78.9696C93.3208 75.9688 96.3552 71.8204 97.869 69.7508C99.3828 67.6813 102.951 62.7709 105.798 58.8388C108.644 54.9068 112.44 49.6987 114.231 47.2653C116.023 44.8319 117.755 42.3667 118.079 41.7871C118.549 40.9476 120.745 40.776 128.872 40.9435L139.075 41.1539L133.885 48.3031C131.031 52.2352 126.759 58.1113 124.393 61.3612C122.026 64.611 118.904 68.9067 117.455 70.9073C116.006 72.9078 111.094 79.6765 106.539 85.9488C101.985 92.2211 97.9565 97.7744 97.5881 98.2894C96.9496 99.182 100.397 104.392 112.567 120.924C122.424 134.314 142.299 161.986 142.299 162.319C142.299 162.524 137.768 162.691 132.23 162.691H122.16L118.325 157.235C116.215 154.234 112.023 148.373 109.009 144.21C105.994 140.047 99.8339 131.496 95.3191 125.208C90.8043 118.92 86.8627 113.775 86.5599 113.775C86.2571 113.775 85.4036 114.706 84.6632 115.845C83.4374 117.729 79.9815 122.475 68.9081 137.481C66.7701 140.378 62.5792 146.135 59.5952 150.274C56.6111 154.413 53.3189 158.9 52.2792 160.245L50.3888 162.691H40.1944H30L32.1665 159.869ZM153.591 135.599V108.507H140.04C132.587 108.507 126.489 108.316 126.489 108.083C126.489 107.85 128.893 104.294 131.83 100.181L137.171 92.7037H145.381H153.591V66.6973V40.691L186.528 40.9487C217.767 41.1932 219.679 41.2876 223.641 42.7806C234.115 46.7281 239.639 51.3904 243.426 59.4796C245.573 64.0662 245.77 65.1411 245.791 72.3848C245.812 79.742 245.65 80.6237 243.436 85.1781C240.667 90.8731 238.854 93.0861 233.992 96.7012L230.452 99.3336L234.612 101.437C237.041 102.666 240.597 105.492 243.16 108.231C248.933 114.4 250.879 119.365 250.937 128.074C251.033 142.381 245.181 152.254 233.085 158.192C224.824 162.247 220.093 162.691 185.144 162.691H153.591V135.599ZM221.476 144.77C230.79 141.041 234.634 132.144 231.796 120.88C230.816 116.99 226.875 112.557 222.443 110.36C219.705 109.003 217.529 108.865 195.562 108.656L171.659 108.429V127.708V146.987L194.432 146.733C216.039 146.492 217.425 146.391 221.476 144.77ZM216.682 91.549C221.673 90.0671 225.497 86.2163 227 81.1558C229.353 73.2363 228.057 66.7744 223.175 62.0737C217.928 57.0224 215.411 56.5812 191.849 56.5812H171.659V74.6424V92.7037H192.226C208.519 92.7037 213.6 92.4638 216.682 91.549V91.549ZM370.214 161.75C370.623 161.233 380.016 148.28 391.089 132.965C402.161 117.651 412.218 103.849 413.438 102.294L415.656 99.4677L407.147 87.7202C402.467 81.259 395.805 72.0328 392.342 67.2176C388.878 62.4023 384.663 56.6 382.974 54.3235C377.172 46.5014 374.393 42.6573 373.862 41.7183C373.448 40.9861 375.562 40.7776 383.401 40.7776H393.472L409.15 62.4135C417.773 74.3132 425.049 84.3022 425.319 84.6112C425.59 84.9203 427.972 82.2111 430.613 78.5908C433.253 74.9705 436.649 70.3153 438.158 68.2457C439.667 66.1762 443.109 61.4351 445.806 57.71C448.504 53.9849 452.376 48.6512 454.412 45.8573L458.113 40.7776L468.15 40.7776C473.671 40.7776 478.075 41.0319 477.937 41.3427C477.53 42.2595 456.986 70.7929 453.419 75.395C452.617 76.4297 448.379 82.2304 444.001 88.2852L436.041 99.2941L443.917 110.109C448.249 116.058 452.199 121.437 452.694 122.063C453.19 122.689 455.776 126.245 458.44 129.965C461.105 133.685 465.657 139.945 468.556 143.877C471.455 147.809 475.074 152.72 476.598 154.789C478.122 156.859 479.961 159.483 480.685 160.621L482 162.691H471.916H461.833L450.211 146.699C430.459 119.52 426.055 113.724 425.441 114.104C425.115 114.306 422.597 117.616 419.847 121.46C417.097 125.305 412.881 131.159 410.478 134.47C408.076 137.782 403.44 144.216 400.176 148.769C396.912 153.322 393.254 158.317 392.048 159.869L389.855 162.691H379.662C371.614 162.691 369.627 162.493 370.214 161.75Z" fill="white"/>
</svg>
