<svg width="1629" height="512" viewBox="0 0 1629 512" fill="none" xmlns="http://www.w3.org/2000/svg">
<path d="M1468.74 397.008H1464.55V368.264H1454.96V364.242H1478.37V368.264H1468.78L1468.74 397.008ZM1497.75 389.401L1506.71 364.242H1513.25V397.03H1508.89V369.619L1498.97 397.008H1496.31L1486.44 369.619V397.008H1482.3V364.22H1488.84L1497.75 389.401ZM1412.98 114H1011.89V223.033C1011.89 223.033 1010.67 265.133 1062.59 265.133H1307.76C1317.38 265.054 1326.9 266.998 1335.73 270.838C1349.41 276.959 1364.8 289.418 1364.8 314.556C1364.8 337.115 1353.9 349.924 1343.11 357.094C1334.18 362.881 1323.76 365.92 1313.12 365.837H1011.89V396.44H1347.78C1347.78 396.44 1424.07 393.336 1424.07 314.709C1424.07 274.729 1400.79 254.925 1379.84 245.219C1366.31 238.984 1351.58 235.784 1336.68 235.842H1093.7C1089.65 235.895 1085.65 234.942 1082.06 233.066C1076.87 230.246 1071.16 224.65 1071.16 213.633V144.187H1412.98V114ZM507.066 365.728V396.331H677.31C697.658 396.547 717.399 389.381 732.895 376.155C740.888 369.352 747.264 360.844 751.555 351.253C755.847 341.662 757.947 331.23 757.702 320.72V190.638C757.614 183.524 759.138 176.483 762.159 170.046C765.18 163.609 769.618 157.944 775.14 153.477C782.977 147.325 792.676 144.047 802.628 144.187H951.052V114H774.29C774.29 114 697.996 115.224 697.996 196.146V317.616C698.131 327.565 695.456 337.348 690.28 345.836C686.535 352.113 681.186 357.273 674.786 360.782C668.386 364.291 661.167 366.021 653.877 365.794L507.066 365.728ZM114 114V144.187H417.431C425.871 144.115 434.223 145.914 441.889 149.455C453.922 155.117 467.436 166.768 467.436 190.397C467.436 213.349 453.922 224.825 441.889 230.508C434.097 234.095 425.612 235.916 417.039 235.842H191.994C178.673 235.717 165.507 238.711 153.542 244.586C134.817 254.007 114 276.194 114 312.786V395.85H172.397V313.157C172.359 307.778 173.327 302.439 175.253 297.419C180.07 285.025 192.256 265.133 220.746 265.133H447.665C455.297 265.174 462.898 264.152 470.248 262.095C491.088 256.149 525.834 238.968 525.834 190.397C525.834 114.918 450.913 114 450.913 114H114Z" fill="white"/>
</svg>
