<svg width="512" height="512" viewBox="0 0 512 512" fill="none" xmlns="http://www.w3.org/2000/svg">
<path d="M407 0H105C47.103 0 0 47.103 0 105V407C0 464.897 47.103 512 105 512H407C464.897 512 512 464.897 512 407V105C512 47.103 464.897 0 407 0ZM482 407C482 448.355 448.355 482 407 482H105C63.645 482 30 448.355 30 407V105C30 63.645 63.645 30 105 30H407C448.355 30 482 63.645 482 105V407Z" fill="white"/>
<path d="M305.646 123.531C303.917 117.081 299.781 111.689 293.998 108.351C282.062 101.459 266.742 105.562 259.848 117.502L256 124.166L252.152 117.501C245.259 105.564 229.94 101.459 218.002 108.35H218.001C206.063 115.243 201.959 130.562 208.851 142.501L227.132 174.165L159.678 291H110.5C96.715 291 85.5 302.215 85.5 316C85.5 329.785 96.715 341 110.5 341H300.36L271.492 291H217.413L303.148 142.502C306.487 136.719 307.375 129.981 305.646 123.531Z" fill="white"/>
<path d="M401.5 291H352.322L296.415 194.166L267.548 244.166L354.352 394.514C357.691 400.298 363.081 404.435 369.533 406.164C371.687 406.741 373.872 407.027 376.044 407.027C380.376 407.027 384.652 405.891 388.505 403.666C400.443 396.773 404.547 381.453 397.654 369.516L381.189 341H401.5C415.285 341 426.5 329.785 426.5 316C426.5 302.215 415.285 291 401.5 291ZM119.264 361L114.347 369.516C107.455 381.454 111.56 396.774 123.498 403.666C127.284 405.858 131.581 407.012 135.956 407.01C144.602 407.01 153.023 402.526 157.649 394.515L176.999 361H119.264Z" fill="white"/>
</svg>
