<svg width="512" height="512" viewBox="0 0 512 512" fill="none" xmlns="http://www.w3.org/2000/svg">
<path d="M168.675 39.0257C141.312 43.9182 119.296 64.1706 112.355 90.7946C109.852 100.409 109.682 106.041 109.966 180.622C110.137 249.116 110.194 250.709 111.331 256C117.646 284.501 137.898 304.811 166.684 311.524C170.439 312.377 175.218 312.548 205.994 312.718C237.852 312.946 241.152 312.889 242.005 312.036C242.858 311.182 242.915 300.203 242.915 175.73C242.915 83.456 242.745 39.9929 242.346 39.1964C241.778 38.1724 240.81 38.1155 207.474 38.1724C180.394 38.2293 172.259 38.4 168.675 39.0257ZM220.16 175.559V290.816L197.006 290.532C175.673 290.304 173.397 290.19 169.13 289.109C150.812 284.388 137.216 270.279 133.404 251.904C132.153 246.158 132.153 104.619 133.347 98.9866C136.761 83.0009 147.854 69.7457 162.816 63.7724C170.325 60.7573 173.795 60.416 198.144 60.3591L220.16 60.3022V175.559Z" fill="white"/>
<path d="M173.568 95.0613C169.984 95.744 164.523 98.4747 161.621 101.035C155.648 106.212 152.69 113.55 153.145 122.197C153.372 126.692 153.657 127.886 155.477 131.527C158.151 137.045 162.19 141.084 167.708 143.815C171.52 145.692 172.487 145.92 177.436 146.091C181.931 146.261 183.523 146.091 186.539 145.067C198.883 140.914 206.336 128.91 204.231 116.622C201.785 102.002 187.904 92.2169 173.568 95.0613Z" fill="white"/>
<path d="M270.62 38.5138C270.393 38.6844 270.222 100.352 270.222 175.559C270.222 299.634 270.279 312.206 271.132 312.548C272.668 313.116 316.814 312.889 322.276 312.32C345.372 309.703 365.739 295.652 376.832 274.773C378.254 272.1 380.132 267.605 381.099 264.818C384.683 254.123 384.569 256.967 384.569 175.218C384.569 109.966 384.455 100.238 383.659 96.0853C378.027 66.4462 355.442 44.0889 325.746 38.9689C321.764 38.2862 315.62 38.1155 295.822 38.1155C282.169 38.1155 270.791 38.2862 270.62 38.5138ZM331.378 162.418C340.252 164.75 347.534 171.52 350.492 180.167C352.37 185.515 352.313 193.365 350.436 198.258C346.965 207.246 340.139 213.561 331.378 215.893C317.156 219.591 302.023 211.001 297.87 196.892C296.619 192.569 296.676 185.287 298.098 180.85C302.364 166.912 317.156 158.72 331.378 162.418Z" fill="white"/>
<path d="M426.268 354.076C417.451 356.978 412.217 365.454 413.696 374.67C414.606 380.587 418.02 385.251 423.253 387.925C430.364 391.452 437.931 390.542 443.62 385.422C447.886 381.554 449.707 377.515 449.707 371.769C449.707 366.364 448.114 362.325 444.53 358.741C440.036 354.247 431.957 352.199 426.268 354.076ZM436.338 362.382C439.751 364.146 441.628 366.99 441.913 370.859C442.254 375.922 440.092 379.563 435.598 381.44C427.975 384.626 419.328 377.287 421.49 369.379C422.4 365.852 423.936 363.861 426.78 362.439C429.852 360.96 433.436 360.903 436.338 362.382Z" fill="white"/>
<path d="M44.9424 371.769V389.177L48.5264 389.006L52.0535 388.836L52.3379 377.856L52.6224 366.876L60.8713 377.97L69.1202 389.12L72.5335 389.006L75.9468 388.836V371.769V354.702L72.4197 354.532L68.8357 354.361V365.568V376.832L60.473 365.625L52.0535 354.418H48.5264H44.9424V371.769Z" fill="white"/>
<path d="M101.831 371.769V389.12H105.529H109.227V371.769V354.418H105.529H101.831V371.769Z" fill="white"/>
<path d="M135.111 355.157C134.94 355.556 134.883 363.292 134.94 372.338L135.111 388.836L138.695 389.006L142.222 389.177V377.685V366.137L150.755 377.628L159.289 389.12H162.702H166.115V371.769V354.418H162.418H158.72L158.606 365.34L158.435 376.263L150.243 365.34L142.108 354.418H138.752C136.533 354.418 135.282 354.645 135.111 355.157Z" fill="white"/>
<path d="M190.407 354.816C190.179 354.987 190.009 356.693 190.009 358.514V361.813H195.698H201.387V375.467V389.12H205.084H208.782V375.467V361.813H214.187H219.591V358.116V354.418H205.198C197.234 354.418 190.578 354.588 190.407 354.816Z" fill="white"/>
<path d="M244.622 371.769V389.12H257.991H271.36V385.707V382.293H261.404H251.449V378.311V374.329H260.551H269.653V371.2V368.071H260.551H251.449V364.658V361.244L261.291 361.131L271.075 360.96L271.246 357.66L271.417 354.418H257.991H244.622V371.769Z" fill="white"/>
<path d="M299.52 355.157C299.349 355.556 299.293 363.292 299.349 372.338L299.52 388.836L303.104 389.006L306.631 389.177V377.628V366.137L315.165 377.628L323.698 389.12H327.111H330.525V371.769V354.418H326.827H323.129L323.015 365.34L322.845 376.263L314.653 365.34L306.517 354.418H303.161C300.942 354.418 299.691 354.645 299.52 355.157Z" fill="white"/>
<path d="M359.538 371.712V389.12H367.104C375.865 389.12 380.018 388.267 383.772 385.65C394.866 378.027 393.159 361.7 380.7 355.954C378.368 354.873 376.775 354.702 368.81 354.532L359.538 354.304V371.712ZM378.14 362.894C382.919 365.113 384.967 371.2 382.578 376.263C380.757 380.018 377.059 381.724 370.574 381.724H366.364V371.769V361.813H371.086C374.442 361.813 376.434 362.155 378.14 362.894Z" fill="white"/>
<path d="M342.357 404.537C334.45 405.561 327.396 409.259 321.593 415.46C308.907 429.113 309.305 449.877 322.56 463.076C327.453 468.025 331.89 470.585 338.261 472.178C348.729 474.852 359.31 472.747 367.957 466.204C371.314 463.701 375.694 458.809 375.353 457.956C375.239 457.728 372.907 455.623 370.119 453.177L365.113 448.796L363.577 450.788C356.238 460.402 341.39 461.426 332.8 452.836C331.549 451.584 329.842 449.252 328.989 447.602C327.566 444.871 327.396 444.018 327.396 438.898C327.396 434.005 327.566 432.811 328.818 430.364C333.028 421.66 343.438 416.939 352.484 419.556C356.693 420.75 360.676 423.253 363.179 426.268L365.113 428.601L367.616 426.553C368.981 425.472 371.371 423.367 372.907 422.002L375.751 419.442L373.533 416.711C366.137 407.723 354.19 403.058 342.357 404.537Z" fill="white"/>
<path d="M60.9848 406.756C47.4453 410.34 40.4479 419.385 43.463 429.625C45.6248 437.191 52.7928 440.889 71.8506 444.302C84.6506 446.578 88.4053 448.455 88.4053 452.494C88.4053 455.282 86.7555 457.33 83.1715 458.98C80.0995 460.402 79.4168 460.516 71.6799 460.516C62.5208 460.516 58.9368 459.776 52.167 456.704C50.0621 455.737 48.2417 455.054 48.1279 455.168C47.4453 456.021 42.0408 466.091 42.2115 466.204C42.7804 466.83 51.8826 470.13 55.6373 471.154C61.895 472.804 75.2639 473.202 82.0906 471.95C94.8337 469.561 101.148 463.701 101.717 453.86C102.172 445.724 99.8968 441.515 92.8995 437.874C87.8933 435.257 83.5697 434.005 72.5333 431.787C62.919 429.909 60.1884 428.999 58.1973 427.122C56.4337 425.472 56.4337 422.514 58.2541 420.693C62.3501 416.597 77.0275 416.427 88.4053 420.409C90.2826 421.035 91.9893 421.376 92.2168 421.148C92.615 420.693 96.711 411.079 96.711 410.51C96.711 409.998 88.007 407.438 83.1146 406.528C76.5155 405.276 66.2755 405.39 60.9848 406.756Z" fill="white"/>
<path d="M109.454 407.154C109.625 407.723 113.607 421.888 118.329 438.613C123.051 455.339 127.033 469.504 127.204 470.016C127.488 470.926 128.398 471.04 135.396 471.04H143.303L143.929 468.878C149.561 448.512 155.25 429.397 155.534 430.08C155.705 430.535 158.379 439.865 161.451 450.844L167.026 470.756L174.99 470.926L182.955 471.097L192 439.353C196.949 421.888 201.102 407.268 201.273 406.869C201.444 406.357 199.851 406.187 194.332 406.187H187.221L186.425 408.86C185.97 410.396 183.239 420.636 180.338 431.616C177.38 442.652 174.876 451.698 174.649 451.698C174.478 451.698 171.804 443.051 168.732 432.469C165.66 421.945 162.645 411.705 162.019 409.714L160.939 406.13L155.136 406.3L149.333 406.471L142.677 429.227C139.036 441.742 136.021 452.096 135.964 452.267C135.908 452.437 133.348 443.221 130.332 431.787C127.26 420.352 124.416 409.941 124.075 408.576L123.392 406.187H116.281C109.739 406.187 109.17 406.244 109.454 407.154Z" fill="white"/>
<path d="M217.315 438.613V471.04H224.711H232.107L231.993 438.727L231.822 406.471L224.597 406.3L217.315 406.13V438.613Z" fill="white"/>
<path d="M247.467 413.298V420.409H257.707H267.947V445.724V471.04H275.058H282.169V445.724V420.409L292.295 420.295L302.365 420.124V413.298V406.471L274.944 406.3L247.467 406.187V413.298Z" fill="white"/>
<path d="M390.258 438.613V471.04H397.084H403.911V458.24V445.44H418.987H434.062V458.24V471.04H440.889H447.716L447.602 438.727L447.431 406.471L440.775 406.3L434.062 406.13V418.987V431.787H418.987H403.911V418.987V406.187H397.084H390.258V438.613Z" fill="white"/>
</svg>
