<svg width="2171" height="270" viewBox="0 0 2171 270" fill="none" xmlns="http://www.w3.org/2000/svg">
<path d="M1135.37 236.222C1135.37 238.927 1133.13 241.141 1130.42 241.141H1036.04C1033.3 241.141 1031.11 238.927 1031.11 236.222V167.958C1031.11 165.244 1033.3 163.048 1036.04 163.048H1130.42C1133.13 163.048 1135.37 165.244 1135.37 167.958V236.222ZM1131.27 142.569H1035.17C1021.26 142.569 1009.96 153.953 1009.96 167.819V236.38C1009.96 250.227 1021.26 261.602 1035.17 261.602H1131.27C1145.18 261.602 1156.51 250.227 1156.51 236.38V167.819C1156.51 153.953 1145.18 142.569 1131.27 142.569" fill="white"/>
<path d="M29.1405 39.9943V128.211H7.08643V9.14075H25.9172L115.199 95.8659V9.14075H132.835H136.966V128.211H119.737L29.1405 39.9943Z" fill="white"/>
<path d="M250.148 39.9943V128.211H228.104V9.14075H246.916L336.197 95.8659V9.14075H353.87H357.983V128.211H340.764L250.148 39.9943Z" fill="white"/>
<path d="M708.201 39.9943V128.211H686.165V9.14075H704.977L794.25 95.8659V9.14075H811.913H816.035V128.211H798.825L708.201 39.9943Z" fill="white"/>
<path d="M189.444 9.14513H193.52V128.206H171.484V9.14513H189.444Z" fill="white"/>
<path d="M508.097 9.14513H512.154V29.6246H458.987V128.206H436.09V29.6246H382.96V9.14513H508.097Z" fill="white"/>
<path d="M649.324 9.14513H653.455V29.6246H558.968V56.347H632.059V76.8265H558.968V107.699H653.455V128.206H537.155V9.14513H649.324Z" fill="white"/>
<path d="M938.602 107.695H870.893V29.6212H871.523H938.602C959.786 29.6212 967.326 50.675 967.326 68.635C967.326 86.6692 959.786 107.695 938.602 107.695ZM974.773 26.5368C966.168 15.1809 953.404 9.14173 937.973 9.14173H849.636V128.212H937.973C953.404 128.212 966.168 122.182 974.773 110.817C982.84 100.23 987.129 85.6874 987.129 68.635C987.129 51.6753 982.84 37.0683 974.773 26.5368" fill="white"/>
<path d="M1135.37 102.806C1135.37 105.492 1133.13 107.706 1130.42 107.706H1036.04C1033.3 107.706 1031.11 105.492 1031.11 102.806V34.5411C1031.11 31.8457 1033.3 29.6505 1036.04 29.6505H1130.42C1133.13 29.6505 1135.37 31.8457 1135.37 34.5411V102.806ZM1131.27 9.14319H1035.17C1021.26 9.14319 1009.96 20.5361 1009.96 34.4021V102.982C1009.96 116.839 1021.26 128.213 1035.17 128.213H1131.27C1145.18 128.213 1156.51 116.839 1156.51 102.982V34.4021C1156.51 20.5361 1145.18 9.14319 1131.27 9.14319" fill="white"/>
<path d="M1847.64 211.646C1870.51 220.667 1918.76 227.985 1956.42 227.985C1997.64 227.985 2014.75 213.831 2014.75 196.075C2014.75 180.144 1998.88 170.779 1953.34 154.088C1892.48 131.589 1847.84 113.889 1847.84 73.9115C1847.84 32.508 1901.55 8.15678 1983.46 8.15678C2027.44 8.15678 2042.54 10.9355 2070.48 16.0577L2070.68 55.3402C2043.25 50.1254 2018.94 41.1592 1981.17 41.1592C1940.7 41.1592 1923.46 54.0064 1923.46 67.2518C1923.46 86.4716 1950.01 95.66 1996.62 112.268C2061.47 135.489 2097.56 153.403 2097.56 192.546C2097.56 232.82 2052.38 261.895 1950.45 261.895C1908.58 261.895 1879.73 259.135 1847.64 253.975V211.646Z" fill="white"/>
<path d="M1630.67 42.8704H1582.17V226.482H1630.67C1705.13 226.482 1752.1 194.646 1752.1 135.051C1752.1 75.4746 1705.13 42.8704 1630.67 42.8704ZM1760.9 243.59C1736.89 254.455 1691.52 261.346 1651.82 261.346H1500.21V8.70094H1651.82C1691.52 8.70094 1736.89 15.6849 1760.92 26.5221C1819.31 52.8833 1838.38 95.0741 1838.38 135.051C1838.38 175.056 1819.49 217.182 1760.9 243.59" fill="white"/>
<path d="M1393.93 123.1C1393.93 123.1 1464.66 111.772 1464.66 67.7378C1464.66 24.6948 1389.35 7.08673 1309.22 7.08673C1236.89 7.08673 1189.35 15.9232 1189.35 15.9232V55.0296C1222.18 47.0916 1253.57 40.33 1296.36 40.33C1342.28 40.33 1377.33 54.0293 1377.33 73.388C1377.33 96.7296 1342.67 110.058 1268.08 110.058H1233.8V145.247H1265.64C1344.22 145.247 1388.9 157.066 1388.9 185.909C1388.9 211.659 1348.98 227.304 1299.2 227.304C1255.8 227.304 1216.09 218.06 1183.88 209.121V251.303C1199.35 253.961 1240.39 262.205 1316.84 262.205C1401.52 262.205 1475.2 234.973 1475.2 186.974C1475.2 146.719 1424.15 123.1 1393.93 123.1Z" fill="white"/>
<path d="M2118.13 226.932H2110.16V222.653H2131.32V226.932H2123.24V250.672H2118.13V226.932Z" fill="white"/>
<path d="M2158.26 239.238C2158.1 235.617 2157.89 231.254 2157.93 227.475H2157.79C2156.89 230.893 2155.73 234.672 2154.48 238.201L2150.36 250.344H2146.45L2142.71 238.368C2141.63 234.792 2140.63 230.967 2139.89 227.475H2139.81C2139.68 231.134 2139.51 235.58 2139.3 239.414L2138.68 250.677H2133.89L2135.77 222.649H2142.5L2146.17 233.912C2147.15 237.2 2148.04 240.535 2148.74 243.656H2148.87C2149.61 240.609 2150.57 237.154 2151.65 233.875L2155.51 222.649H2162.17L2163.8 250.677H2158.8L2158.26 239.238Z" fill="white"/>
</svg>
