<svg width="2461" height="380" viewBox="0 0 2461 380" fill="none" xmlns="http://www.w3.org/2000/svg">
<path d="M1504.86 323.133C1504.86 326.674 1501.95 329.86 1498.38 329.86H1374.45C1370.84 329.86 1367.93 326.674 1367.93 323.133V233.551C1367.93 230.011 1370.84 227.178 1374.45 227.178H1498.38C1501.95 227.178 1504.86 230.011 1504.86 233.551V323.133ZM1499.48 200.268H1373.31C1355.05 200.268 1340.15 215.14 1340.15 233.551V323.487C1340.15 341.545 1355.05 356.77 1373.31 356.77H1499.48C1517.77 356.77 1532.64 341.545 1532.64 323.487V233.551C1532.64 215.14 1517.77 200.268 1499.48 200.268Z" fill="white"/>
<path d="M52.1919 65.7192C52.1919 65.7192 52.1919 179.732 52.1919 181.502C50.6702 181.502 24.8005 181.502 23.2434 181.502C23.2434 179.732 23.2434 26.7707 23.2434 25.0004C24.8713 25.0004 47.2374 25.0004 47.9806 25.0004L165.226 139.013C165.226 139.013 165.226 26.7707 165.226 25.0004C166.818 25.0004 188.406 25.0004 188.406 25.0004C188.406 25.0004 192.511 25.0004 193.785 25.0004C193.785 26.7707 193.785 179.732 193.785 181.502C192.228 181.502 171.95 181.502 171.171 181.502L52.1919 65.7192Z" fill="white"/>
<path d="M342.42 65.7192C342.42 65.7192 342.42 179.732 342.42 181.502C340.863 181.502 315.064 181.502 313.472 181.502C313.472 179.732 313.472 26.7707 313.472 25.0004C315.1 25.0004 337.431 25.0004 338.174 25.0004L455.419 139.013C455.419 139.013 455.419 26.7707 455.419 25.0004C457.011 25.0004 478.634 25.0004 478.634 25.0004C478.634 25.0004 482.775 25.0004 484.014 25.0004C484.014 26.7707 484.014 179.732 484.014 181.502C482.421 181.502 462.178 181.502 461.4 181.502L342.42 65.7192Z" fill="white"/>
<path d="M943.934 65.7192C943.934 65.7192 943.934 179.732 943.934 181.502C942.342 181.502 916.578 181.502 914.986 181.502C914.986 179.732 914.986 26.7707 914.986 25.0004C916.614 25.0004 938.98 25.0004 939.688 25.0004L1056.93 139.013C1056.93 139.013 1056.93 26.7707 1056.93 25.0004C1058.53 25.0004 1080.15 25.0004 1080.15 25.0004C1080.15 25.0004 1084.29 25.0004 1085.53 25.0004C1085.53 26.7707 1085.53 179.732 1085.53 181.502C1083.93 181.502 1063.69 181.502 1062.95 181.502L943.934 65.7192Z" fill="white"/>
<path d="M262.724 25.0004C262.724 25.0004 266.829 25.0004 268.067 25.0004C268.067 26.7707 268.067 179.732 268.067 181.502C266.546 181.502 240.676 181.502 239.119 181.502C239.119 179.732 239.119 26.7707 239.119 25.0004C240.711 25.0004 262.724 25.0004 262.724 25.0004Z" fill="white"/>
<path d="M681.168 25.0004C681.168 25.0004 685.202 25.0004 686.476 25.0004C686.476 26.4166 686.476 50.4938 686.476 51.91C684.777 51.91 616.688 51.91 616.688 51.91C616.688 51.91 616.688 179.732 616.688 181.502C615.131 181.502 588.164 181.502 586.607 181.502C586.607 179.732 586.607 51.91 586.607 51.91C586.607 51.91 518.518 51.91 516.819 51.91C516.819 50.4938 516.819 26.4166 516.819 25.0004C518.553 25.0004 681.168 25.0004 681.168 25.0004Z" fill="white"/>
<path d="M866.608 25.0004C866.608 25.0004 870.784 25.0004 872.023 25.0004C872.023 26.4166 872.023 50.4938 872.023 51.91C870.36 51.91 747.948 51.91 747.948 51.91V86.9637C747.948 86.9637 842.296 86.9637 843.924 86.9637C843.924 88.734 843.924 112.103 843.924 113.874C842.296 113.874 747.948 113.874 747.948 113.874V154.592C747.948 154.592 870.36 154.592 872.023 154.592C872.023 156.009 872.023 179.732 872.023 181.502C870.36 181.502 720.946 181.502 719.282 181.502C719.282 179.732 719.282 26.7707 719.282 25.0004C720.946 25.0004 866.608 25.0004 866.608 25.0004Z" fill="white"/>
<path d="M1246.48 154.592H1157.58V51.91H1246.48C1274.29 51.91 1284.17 79.528 1284.17 103.251C1284.17 126.62 1274.29 154.592 1246.48 154.592ZM1293.97 48.0153C1282.65 32.7899 1265.91 25.0004 1245.66 25.0004C1245.66 25.0004 1131.36 25.0004 1129.66 25.0004C1129.66 26.7707 1129.66 179.732 1129.66 181.502C1131.36 181.502 1245.66 181.502 1245.66 181.502C1265.91 181.502 1282.65 173.358 1293.97 158.487C1304.59 144.678 1310.21 125.558 1310.21 103.251C1310.21 80.9445 1304.59 61.8244 1293.97 48.0153Z" fill="white"/>
<path d="M1504.86 148.219C1504.86 151.406 1501.95 154.592 1498.38 154.592H1374.45C1370.84 154.592 1367.93 151.406 1367.93 148.219V58.2834C1367.93 54.7428 1370.84 51.91 1374.45 51.91H1498.38C1501.95 51.91 1504.86 54.7428 1504.86 58.2834V148.219ZM1499.48 25.0004H1373.31C1355.05 25.0004 1340.15 39.8716 1340.15 58.2834V148.219C1340.15 166.631 1355.05 181.502 1373.31 181.502H1499.48C1517.77 181.502 1532.64 166.631 1532.64 148.219V58.2834C1532.64 39.8716 1517.77 25.0004 1499.48 25.0004Z" fill="white"/>
<path d="M2025.01 290.558C2055.02 302.596 2118.4 312.157 2167.88 312.157C2222.02 312.157 2244.42 293.744 2244.42 270.375C2244.42 249.131 2223.61 237.092 2163.84 215.14C2083.9 185.751 2025.26 162.382 2025.26 109.624C2025.26 55.451 2095.82 23.23 2203.37 23.23C2261.13 23.23 2280.95 26.7706 2317.61 33.4981L2317.89 85.1933C2281.87 78.4658 2249.94 66.7812 2200.36 66.7812C2147.21 66.7812 2124.56 83.7768 2124.56 101.127C2124.56 126.266 2159.45 138.305 2220.64 160.257C2305.82 190.708 2353.21 214.077 2353.21 265.418C2353.21 318.53 2293.86 356.77 2160.02 356.77C2105.06 356.77 2067.16 353.229 2025.01 346.148V290.558Z" fill="white"/>
<path d="M1740.12 68.9057H1676.42V310.386H1740.12C1837.91 310.386 1899.59 268.251 1899.59 190C1899.59 111.749 1837.91 68.9057 1740.12 68.9057ZM1911.09 332.693C1879.59 346.856 1820 356.062 1767.91 356.062H1568.8V23.938H1767.91C1820 23.938 1879.59 33.144 1911.16 47.3069C1987.85 82.0064 2012.84 137.597 2012.84 190C2012.84 242.403 1988.06 297.993 1911.09 332.693Z" fill="white"/>
<path d="M2373.21 306.491H2360.43V301.888H2391.54V306.491H2378.69V343.669H2373.21V306.491Z" fill="white"/>
<path d="M2431.42 325.257C2431.1 319.592 2430.75 312.511 2430.75 307.199H2430.61C2429.12 312.156 2427.42 317.468 2425.3 323.133L2417.9 343.669H2413.8L2406.93 323.487C2404.95 317.467 2403.32 312.156 2402.16 307.199H2402.01C2401.91 312.511 2401.59 319.592 2401.23 325.611L2400.1 343.669H2394.94L2397.87 301.888H2404.77L2411.92 322.071C2413.66 327.382 2415.04 331.985 2416.17 336.234H2416.28C2417.41 331.985 2418.89 327.382 2420.77 322.071L2428.24 301.888H2435.14L2437.76 343.669H2432.41L2431.42 325.257Z" fill="white"/>
</svg>
